STARTFONT 2.1
COMMENT
COMMENT Converted from OpenType font "CourierPrime-Bold.ttf" by "otf2bdf 3.0".
COMMENT
FONT -FreeType-Courier Prime-Bold-R-Normal--12-90-100-100-P-67-ISO10646-1
SIZE 9 100 100
FONTBOUNDINGBOX 15 15 -5 -3
STARTPROPERTIES 19
FOUNDRY "FreeType"
FAMILY_NAME "Courier Prime"
WEIGHT_NAME "Bold"
SLANT "R"
SETWIDTH_NAME "Normal"
ADD_STYLE_NAME ""
PIXEL_SIZE 12
POINT_SIZE 90
RESOLUTION_X 100
RESOLUTION_Y 100
SPACING "P"
AVERAGE_WIDTH 67
CHARSET_REGISTRY "ISO10646"
CHARSET_ENCODING "1"
FONT_ASCENT 10
FONT_DESCENT 4
COPYRIGHT "Copyright 2015 The Courier Prime Project Authors (https://github.com/quoteunquoteapps/CourierPrime)."
_OTF_FONTFILE "CourierPrime-Bold.ttf"
_OTF_PSNAME "CourierPrime-Bold"
ENDPROPERTIES
CHARS 383
STARTCHAR 000D
ENCODING 13
SWIDTH 640 0
DWIDTH 8 0
BBX 0 0 0 0
BITMAP
ENDCHAR
STARTCHAR 0020
ENCODING 32
SWIDTH 640 0
DWIDTH 8 0
BBX 0 0 0 0
BITMAP
ENDCHAR
STARTCHAR 0021
ENCODING 33
SWIDTH 640 0
DWIDTH 8 0
BBX 2 8 3 0
BITMAP
C0
C0
C0
C0
C0
00
C0
C0
ENDCHAR
STARTCHAR 0022
ENCODING 34
SWIDTH 640 0
DWIDTH 8 0
BBX 6 4 1 4
BITMAP
CC
CC
C8
48
ENDCHAR
STARTCHAR 0023
ENCODING 35
SWIDTH 640 0
DWIDTH 8 0
BBX 7 8 0 0
BITMAP
12
16
7E
24
24
FE
68
48
ENDCHAR
STARTCHAR 0024
ENCODING 36
SWIDTH 640 0
DWIDTH 8 0
BBX 6 9 1 -1
BITMAP
20
7C
EC
F0
7C
EC
F8
20
20
ENDCHAR
STARTCHAR 0025
ENCODING 37
SWIDTH 640 0
DWIDTH 8 0
BBX 7 8 0 0
BITMAP
60
F2
74
08
10
6E
4A
0E
ENDCHAR
STARTCHAR 0026
ENCODING 38
SWIDTH 640 0
DWIDTH 8 0
BBX 6 8 1 0
BITMAP
78
D8
C8
40
EC
B8
F8
FC
ENDCHAR
STARTCHAR 0027
ENCODING 39
SWIDTH 640 0
DWIDTH 8 0
BBX 2 4 3 4
BITMAP
C0
C0
C0
80
ENDCHAR
STARTCHAR 0028
ENCODING 40
SWIDTH 640 0
DWIDTH 8 0
BBX 4 10 2 -2
BITMAP
30
60
C0
80
80
80
80
C0
60
30
ENDCHAR
STARTCHAR 0029
ENCODING 41
SWIDTH 640 0
DWIDTH 8 0
BBX 4 10 2 -2
BITMAP
C0
60
30
30
10
10
30
30
60
C0
ENDCHAR
STARTCHAR 002A
ENCODING 42
SWIDTH 640 0
DWIDTH 8 0
BBX 6 6 1 2
BITMAP
30
30
EC
78
70
58
ENDCHAR
STARTCHAR 002B
ENCODING 43
SWIDTH 640 0
DWIDTH 8 0
BBX 6 6 1 1
BITMAP
30
30
30
FC
30
30
ENDCHAR
STARTCHAR 002C
ENCODING 44
SWIDTH 640 0
DWIDTH 8 0
BBX 3 4 2 -2
BITMAP
60
40
C0
C0
ENDCHAR
STARTCHAR 002D
ENCODING 45
SWIDTH 640 0
DWIDTH 8 0
BBX 6 1 1 3
BITMAP
FC
ENDCHAR
STARTCHAR 002E
ENCODING 46
SWIDTH 640 0
DWIDTH 8 0
BBX 2 2 3 0
BITMAP
C0
C0
ENDCHAR
STARTCHAR 002F
ENCODING 47
SWIDTH 640 0
DWIDTH 8 0
BBX 6 10 1 -2
BITMAP
0C
08
18
10
30
30
60
60
C0
C0
ENDCHAR
STARTCHAR 0030
ENCODING 48
SWIDTH 640 0
DWIDTH 8 0
BBX 6 8 1 0
BITMAP
78
F8
CC
CC
CC
CC
F8
78
ENDCHAR
STARTCHAR 0031
ENCODING 49
SWIDTH 640 0
DWIDTH 8 0
BBX 6 8 1 0
BITMAP
30
70
F0
30
30
30
30
FC
ENDCHAR
STARTCHAR 0032
ENCODING 50
SWIDTH 640 0
DWIDTH 8 0
BBX 6 8 1 0
BITMAP
78
D8
C8
18
38
70
EC
FC
ENDCHAR
STARTCHAR 0033
ENCODING 51
SWIDTH 640 0
DWIDTH 8 0
BBX 6 8 1 0
BITMAP
F8
D8
08
38
08
0C
D8
F8
ENDCHAR
STARTCHAR 0034
ENCODING 52
SWIDTH 640 0
DWIDTH 8 0
BBX 6 8 1 0
BITMAP
10
30
70
D0
FC
10
10
7C
ENDCHAR
STARTCHAR 0035
ENCODING 53
SWIDTH 640 0
DWIDTH 8 0
BBX 6 8 1 0
BITMAP
78
40
C0
F8
CC
0C
D8
F8
ENDCHAR
STARTCHAR 0036
ENCODING 54
SWIDTH 640 0
DWIDTH 8 0
BBX 6 8 1 0
BITMAP
1C
70
C0
F8
CC
CC
FC
78
ENDCHAR
STARTCHAR 0037
ENCODING 55
SWIDTH 640 0
DWIDTH 8 0
BBX 6 8 1 0
BITMAP
FC
CC
C8
18
10
30
30
20
ENDCHAR
STARTCHAR 0038
ENCODING 56
SWIDTH 640 0
DWIDTH 8 0
BBX 6 8 1 0
BITMAP
78
D8
C8
78
C8
CC
DC
78
ENDCHAR
STARTCHAR 0039
ENCODING 57
SWIDTH 640 0
DWIDTH 8 0
BBX 6 8 1 0
BITMAP
70
D8
CC
CC
7C
08
38
70
ENDCHAR
STARTCHAR 003A
ENCODING 58
SWIDTH 640 0
DWIDTH 8 0
BBX 2 6 3 0
BITMAP
C0
C0
00
00
C0
C0
ENDCHAR
STARTCHAR 003B
ENCODING 59
SWIDTH 640 0
DWIDTH 8 0
BBX 3 8 2 -2
BITMAP
60
60
00
00
60
60
40
C0
ENDCHAR
STARTCHAR 003C
ENCODING 60
SWIDTH 640 0
DWIDTH 8 0
BBX 6 6 1 0
BITMAP
0C
38
E0
E0
38
0C
ENDCHAR
STARTCHAR 003D
ENCODING 61
SWIDTH 640 0
DWIDTH 8 0
BBX 6 4 1 2
BITMAP
FC
00
00
FC
ENDCHAR
STARTCHAR 003E
ENCODING 62
SWIDTH 640 0
DWIDTH 8 0
BBX 6 6 1 0
BITMAP
C0
70
1C
1C
70
C0
ENDCHAR
STARTCHAR 003F
ENCODING 63
SWIDTH 640 0
DWIDTH 8 0
BBX 5 8 1 0
BITMAP
78
D8
C8
38
30
20
00
30
ENDCHAR
STARTCHAR 0040
ENCODING 64
SWIDTH 640 0
DWIDTH 8 0
BBX 8 8 0 -1
BITMAP
3C
66
5E
BD
AA
B6
40
7C
ENDCHAR
STARTCHAR 0041
ENCODING 65
SWIDTH 640 0
DWIDTH 8 0
BBX 8 8 0 0
BITMAP
78
38
3C
2C
24
7E
66
EF
ENDCHAR
STARTCHAR 0042
ENCODING 66
SWIDTH 640 0
DWIDTH 8 0
BBX 7 8 0 0
BITMAP
FC
2E
26
26
3C
26
26
FE
ENDCHAR
STARTCHAR 0043
ENCODING 67
SWIDTH 640 0
DWIDTH 8 0
BBX 6 8 1 0
BITMAP
74
EC
CC
80
80
C0
EC
78
ENDCHAR
STARTCHAR 0044
ENCODING 68
SWIDTH 640 0
DWIDTH 8 0
BBX 7 8 0 0
BITMAP
FC
6E
66
62
62
66
6E
FC
ENDCHAR
STARTCHAR 0045
ENCODING 69
SWIDTH 640 0
DWIDTH 8 0
BBX 7 8 0 0
BITMAP
FE
62
62
62
78
62
62
FE
ENDCHAR
STARTCHAR 0046
ENCODING 70
SWIDTH 640 0
DWIDTH 8 0
BBX 7 8 0 0
BITMAP
FE
22
22
20
3C
20
20
F8
ENDCHAR
STARTCHAR 0047
ENCODING 71
SWIDTH 640 0
DWIDTH 8 0
BBX 8 8 0 0
BITMAP
3E
6E
46
C0
CF
46
76
3C
ENDCHAR
STARTCHAR 0048
ENCODING 72
SWIDTH 640 0
DWIDTH 8 0
BBX 7 8 0 0
BITMAP
EE
66
66
66
7E
66
66
EE
ENDCHAR
STARTCHAR 0049
ENCODING 73
SWIDTH 640 0
DWIDTH 8 0
BBX 6 8 1 0
BITMAP
FC
30
30
30
30
30
30
FC
ENDCHAR
STARTCHAR 004A
ENCODING 74
SWIDTH 640 0
DWIDTH 8 0
BBX 6 8 1 0
BITMAP
7C
18
18
18
98
98
D8
F0
ENDCHAR
STARTCHAR 004B
ENCODING 75
SWIDTH 640 0
DWIDTH 8 0
BBX 8 8 0 0
BITMAP
FF
66
6C
78
7C
64
66
F3
ENDCHAR
STARTCHAR 004C
ENCODING 76
SWIDTH 640 0
DWIDTH 8 0
BBX 7 8 0 0
BITMAP
F8
20
20
20
22
22
22
FE
ENDCHAR
STARTCHAR 004D
ENCODING 77
SWIDTH 640 0
DWIDTH 8 0
BBX 8 8 0 0
BITMAP
E7
66
7E
5A
5A
52
42
E7
ENDCHAR
STARTCHAR 004E
ENCODING 78
SWIDTH 640 0
DWIDTH 8 0
BBX 8 8 0 0
BITMAP
EF
66
76
7E
6E
6E
66
F6
ENDCHAR
STARTCHAR 004F
ENCODING 79
SWIDTH 640 0
DWIDTH 8 0
BBX 7 8 0 0
BITMAP
3C
6E
46
C2
C2
46
6E
3C
ENDCHAR
STARTCHAR 0050
ENCODING 80
SWIDTH 640 0
DWIDTH 8 0
BBX 7 8 0 0
BITMAP
FC
26
22
26
3E
20
20
F8
ENDCHAR
STARTCHAR 0051
ENCODING 81
SWIDTH 640 0
DWIDTH 8 0
BBX 7 10 0 -2
BITMAP
3C
6E
42
C2
C2
66
3C
20
7E
40
ENDCHAR
STARTCHAR 0052
ENCODING 82
SWIDTH 640 0
DWIDTH 8 0
BBX 8 8 0 0
BITMAP
FC
66
66
66
7C
6C
66
F7
ENDCHAR
STARTCHAR 0053
ENCODING 83
SWIDTH 640 0
DWIDTH 8 0
BBX 6 8 1 0
BITMAP
7C
DC
CC
F8
3C
8C
EC
B8
ENDCHAR
STARTCHAR 0054
ENCODING 84
SWIDTH 640 0
DWIDTH 8 0
BBX 6 8 1 0
BITMAP
FC
B4
B4
B4
30
30
30
F8
ENDCHAR
STARTCHAR 0055
ENCODING 85
SWIDTH 640 0
DWIDTH 8 0
BBX 7 8 0 0
BITMAP
EE
66
66
66
66
66
6E
3C
ENDCHAR
STARTCHAR 0056
ENCODING 86
SWIDTH 640 0
DWIDTH 8 0
BBX 8 8 0 0
BITMAP
EF
66
66
24
3C
3C
18
18
ENDCHAR
STARTCHAR 0057
ENCODING 87
SWIDTH 640 0
DWIDTH 8 0
BBX 8 8 0 0
BITMAP
E7
42
5A
5A
5A
7E
66
66
ENDCHAR
STARTCHAR 0058
ENCODING 88
SWIDTH 640 0
DWIDTH 8 0
BBX 8 8 0 0
BITMAP
FE
66
3C
18
38
3C
66
EF
ENDCHAR
STARTCHAR 0059
ENCODING 89
SWIDTH 640 0
DWIDTH 8 0
BBX 8 8 0 0
BITMAP
FF
66
2C
3C
18
18
18
7C
ENDCHAR
STARTCHAR 005A
ENCODING 90
SWIDTH 640 0
DWIDTH 8 0
BBX 6 8 1 0
BITMAP
FC
CC
D8
30
70
6C
CC
FC
ENDCHAR
STARTCHAR 005B
ENCODING 91
SWIDTH 640 0
DWIDTH 8 0
BBX 4 10 2 -2
BITMAP
F0
80
80
80
80
80
80
80
80
F0
ENDCHAR
STARTCHAR 005C
ENCODING 92
SWIDTH 640 0
DWIDTH 8 0
BBX 6 10 1 -2
BITMAP
C0
C0
60
60
20
30
10
18
08
0C
ENDCHAR
STARTCHAR 005D
ENCODING 93
SWIDTH 640 0
DWIDTH 8 0
BBX 4 10 2 -2
BITMAP
F0
30
30
30
30
30
30
30
30
F0
ENDCHAR
STARTCHAR 005E
ENCODING 94
SWIDTH 640 0
DWIDTH 8 0
BBX 6 5 1 3
BITMAP
20
30
70
58
CC
ENDCHAR
STARTCHAR 005F
ENCODING 95
SWIDTH 640 0
DWIDTH 8 0
BBX 8 1 0 -3
BITMAP
FF
ENDCHAR
STARTCHAR 0060
ENCODING 96
SWIDTH 640 0
DWIDTH 8 0
BBX 3 3 2 6
BITMAP
80
C0
60
ENDCHAR
STARTCHAR 0061
ENCODING 97
SWIDTH 640 0
DWIDTH 8 0
BBX 6 6 1 0
BITMAP
F8
D8
F8
C8
DC
FC
ENDCHAR
STARTCHAR 0062
ENCODING 98
SWIDTH 640 0
DWIDTH 8 0
BBX 7 8 0 0
BITMAP
E0
60
7C
76
66
66
76
FC
ENDCHAR
STARTCHAR 0063
ENCODING 99
SWIDTH 640 0
DWIDTH 8 0
BBX 6 6 1 0
BITMAP
7C
FC
CC
C0
EC
78
ENDCHAR
STARTCHAR 0064
ENCODING 100
SWIDTH 640 0
DWIDTH 8 0
BBX 7 8 1 0
BITMAP
1C
0C
7C
DC
8C
8C
DC
7E
ENDCHAR
STARTCHAR 0065
ENCODING 101
SWIDTH 640 0
DWIDTH 8 0
BBX 6 6 1 0
BITMAP
78
CC
FC
C0
EC
7C
ENDCHAR
STARTCHAR 0066
ENCODING 102
SWIDTH 640 0
DWIDTH 8 0
BBX 6 8 1 0
BITMAP
3C
34
20
FC
20
20
20
F8
ENDCHAR
STARTCHAR 0067
ENCODING 103
SWIDTH 640 0
DWIDTH 8 0
BBX 7 8 1 -2
BITMAP
7E
DC
8C
8C
DC
7C
D8
F8
ENDCHAR
STARTCHAR 0068
ENCODING 104
SWIDTH 640 0
DWIDTH 8 0
BBX 8 8 0 0
BITMAP
E0
60
7C
76
66
66
66
FF
ENDCHAR
STARTCHAR 0069
ENCODING 105
SWIDTH 640 0
DWIDTH 8 0
BBX 6 8 1 0
BITMAP
30
00
F0
30
30
30
30
FC
ENDCHAR
STARTCHAR 006A
ENCODING 106
SWIDTH 640 0
DWIDTH 8 0
BBX 5 10 1 -2
BITMAP
18
00
F8
18
18
18
18
18
D8
F0
ENDCHAR
STARTCHAR 006B
ENCODING 107
SWIDTH 640 0
DWIDTH 8 0
BBX 7 8 0 0
BITMAP
E0
60
6E
66
78
7C
66
F6
ENDCHAR
STARTCHAR 006C
ENCODING 108
SWIDTH 640 0
DWIDTH 8 0
BBX 6 8 1 0
BITMAP
F0
30
30
30
30
30
30
FC
ENDCHAR
STARTCHAR 006D
ENCODING 109
SWIDTH 640 0
DWIDTH 8 0
BBX 7 6 0 0
BITMAP
F6
7A
5A
5A
5A
5A
ENDCHAR
STARTCHAR 006E
ENCODING 110
SWIDTH 640 0
DWIDTH 8 0
BBX 8 6 0 0
BITMAP
FC
76
66
66
66
FF
ENDCHAR
STARTCHAR 006F
ENCODING 111
SWIDTH 640 0
DWIDTH 8 0
BBX 6 6 1 0
BITMAP
78
DC
8C
8C
DC
78
ENDCHAR
STARTCHAR 0070
ENCODING 112
SWIDTH 640 0
DWIDTH 8 0
BBX 7 8 0 -2
BITMAP
FC
76
66
66
76
7C
60
F0
ENDCHAR
STARTCHAR 0071
ENCODING 113
SWIDTH 640 0
DWIDTH 8 0
BBX 7 8 1 -2
BITMAP
7E
DC
8C
8C
DC
7C
0C
1E
ENDCHAR
STARTCHAR 0072
ENCODING 114
SWIDTH 640 0
DWIDTH 8 0
BBX 6 6 1 0
BITMAP
EC
74
60
60
60
F8
ENDCHAR
STARTCHAR 0073
ENCODING 115
SWIDTH 640 0
DWIDTH 8 0
BBX 6 6 1 0
BITMAP
7C
DC
F0
3C
CC
F8
ENDCHAR
STARTCHAR 0074
ENCODING 116
SWIDTH 640 0
DWIDTH 8 0
BBX 6 8 1 0
BITMAP
60
60
FC
60
60
60
6C
38
ENDCHAR
STARTCHAR 0075
ENCODING 117
SWIDTH 640 0
DWIDTH 8 0
BBX 7 6 0 0
BITMAP
EE
66
66
66
6E
36
ENDCHAR
STARTCHAR 0076
ENCODING 118
SWIDTH 640 0
DWIDTH 8 0
BBX 8 6 0 0
BITMAP
FF
66
24
3C
38
18
ENDCHAR
STARTCHAR 0077
ENCODING 119
SWIDTH 640 0
DWIDTH 8 0
BBX 8 6 0 0
BITMAP
E7
D2
5A
5E
6E
64
ENDCHAR
STARTCHAR 0078
ENCODING 120
SWIDTH 640 0
DWIDTH 8 0
BBX 7 6 0 0
BITMAP
7E
64
38
3C
66
EE
ENDCHAR
STARTCHAR 0079
ENCODING 121
SWIDTH 640 0
DWIDTH 8 0
BBX 8 8 0 -2
BITMAP
FF
66
24
3C
18
18
30
60
ENDCHAR
STARTCHAR 007A
ENCODING 122
SWIDTH 640 0
DWIDTH 8 0
BBX 6 6 1 0
BITMAP
FC
98
30
60
EC
FC
ENDCHAR
STARTCHAR 007B
ENCODING 123
SWIDTH 640 0
DWIDTH 8 0
BBX 5 11 1 -3
BITMAP
18
30
20
20
20
C0
60
20
20
30
38
ENDCHAR
STARTCHAR 007C
ENCODING 124
SWIDTH 640 0
DWIDTH 8 0
BBX 2 10 3 -2
BITMAP
C0
C0
C0
C0
C0
C0
C0
C0
C0
C0
ENDCHAR
STARTCHAR 007D
ENCODING 125
SWIDTH 640 0
DWIDTH 8 0
BBX 6 11 1 -3
BITMAP
E0
30
30
30
30
0C
10
30
30
30
E0
ENDCHAR
STARTCHAR 007E
ENCODING 126
SWIDTH 640 0
DWIDTH 8 0
BBX 6 2 1 3
BITMAP
E4
BC
ENDCHAR
STARTCHAR 00A0
ENCODING 160
SWIDTH 640 0
DWIDTH 8 0
BBX 0 0 0 0
BITMAP
ENDCHAR
STARTCHAR 00A1
ENCODING 161
SWIDTH 640 0
DWIDTH 8 0
BBX 2 8 3 -2
BITMAP
C0
C0
00
C0
C0
C0
C0
C0
ENDCHAR
STARTCHAR 00A2
ENCODING 162
SWIDTH 640 0
DWIDTH 8 0
BBX 6 9 1 -1
BITMAP
30
7C
FC
FC
F0
F4
7C
30
30
ENDCHAR
STARTCHAR 00A3
ENCODING 163
SWIDTH 640 0
DWIDTH 8 0
BBX 6 8 1 0
BITMAP
78
78
48
40
F8
60
40
FC
ENDCHAR
STARTCHAR 00A4
ENCODING 164
SWIDTH 640 0
DWIDTH 8 0
BBX 6 7 1 1
BITMAP
84
FC
C8
CC
C8
FC
84
ENDCHAR
STARTCHAR 00A5
ENCODING 165
SWIDTH 640 0
DWIDTH 8 0
BBX 8 8 0 0
BITMAP
FF
66
64
7E
38
7E
18
7C
ENDCHAR
STARTCHAR 00A6
ENCODING 166
SWIDTH 640 0
DWIDTH 8 0
BBX 2 10 3 -2
BITMAP
C0
C0
C0
C0
C0
C0
C0
C0
C0
C0
ENDCHAR
STARTCHAR 00A7
ENCODING 167
SWIDTH 640 0
DWIDTH 8 0
BBX 6 9 1 -1
BITMAP
78
48
68
F8
DC
7C
18
C8
F8
ENDCHAR
STARTCHAR 00A8
ENCODING 168
SWIDTH 640 0
DWIDTH 8 0
BBX 4 1 2 7
BITMAP
B0
ENDCHAR
STARTCHAR 00A9
ENCODING 169
SWIDTH 640 0
DWIDTH 8 0
BBX 8 8 0 0
BITMAP
3C
66
DA
A1
A1
BA
46
3C
ENDCHAR
STARTCHAR 00AA
ENCODING 170
SWIDTH 640 0
DWIDTH 8 0
BBX 6 5 1 3
BITMAP
70
48
78
C8
7C
ENDCHAR
STARTCHAR 00AB
ENCODING 171
SWIDTH 640 0
DWIDTH 8 0
BBX 6 5 1 1
BITMAP
6C
C8
98
C8
6C
ENDCHAR
STARTCHAR 00AC
ENCODING 172
SWIDTH 640 0
DWIDTH 8 0
BBX 6 4 1 1
BITMAP
FC
0C
0C
0C
ENDCHAR
STARTCHAR 00AD
ENCODING 173
SWIDTH 640 0
DWIDTH 8 0
BBX 6 1 1 2
BITMAP
FC
ENDCHAR
STARTCHAR 00AE
ENCODING 174
SWIDTH 640 0
DWIDTH 8 0
BBX 6 6 1 2
BITMAP
78
B4
B4
B4
BC
78
ENDCHAR
STARTCHAR 00AF
ENCODING 175
SWIDTH 640 0
DWIDTH 8 0
BBX 4 1 2 7
BITMAP
F0
ENDCHAR
STARTCHAR 00B0
ENCODING 176
SWIDTH 640 0
DWIDTH 8 0
BBX 4 4 1 4
BITMAP
70
D0
D0
70
ENDCHAR
STARTCHAR 00B1
ENCODING 177
SWIDTH 640 0
DWIDTH 8 0
BBX 6 7 1 0
BITMAP
30
30
FC
30
30
00
FC
ENDCHAR
STARTCHAR 00B2
ENCODING 178
SWIDTH 640 0
DWIDTH 8 0
BBX 4 5 2 3
BITMAP
F0
90
30
50
F0
ENDCHAR
STARTCHAR 00B3
ENCODING 179
SWIDTH 640 0
DWIDTH 8 0
BBX 4 5 2 3
BITMAP
F0
90
60
10
F0
ENDCHAR
STARTCHAR 00B4
ENCODING 180
SWIDTH 640 0
DWIDTH 8 0
BBX 3 3 3 6
BITMAP
20
60
80
ENDCHAR
STARTCHAR 00B5
ENCODING 181
SWIDTH 640 0
DWIDTH 8 0
BBX 6 9 1 -3
BITMAP
CC
CC
CC
CC
FC
FC
C0
C0
C0
ENDCHAR
STARTCHAR 00B6
ENCODING 182
SWIDTH 640 0
DWIDTH 8 0
BBX 6 10 1 -2
BITMAP
7C
E8
E8
E8
68
28
28
28
28
28
ENDCHAR
STARTCHAR 00B7
ENCODING 183
SWIDTH 640 0
DWIDTH 8 0
BBX 2 2 3 3
BITMAP
C0
C0
ENDCHAR
STARTCHAR 00B8
ENCODING 184
SWIDTH 640 0
DWIDTH 8 0
BBX 4 3 2 -3
BITMAP
40
30
F0
ENDCHAR
STARTCHAR 00B9
ENCODING 185
SWIDTH 640 0
DWIDTH 8 0
BBX 4 5 2 3
BITMAP
60
E0
60
60
F0
ENDCHAR
STARTCHAR 00BA
ENCODING 186
SWIDTH 640 0
DWIDTH 8 0
BBX 5 5 1 3
BITMAP
70
48
C8
48
70
ENDCHAR
STARTCHAR 00BB
ENCODING 187
SWIDTH 640 0
DWIDTH 8 0
BBX 6 5 1 1
BITMAP
98
C8
64
C8
98
ENDCHAR
STARTCHAR 00BC
ENCODING 188
SWIDTH 640 0
DWIDTH 8 0
BBX 8 10 0 -1
BITMAP
40
C0
40
E2
0C
32
46
0A
0F
02
ENDCHAR
STARTCHAR 00BD
ENCODING 189
SWIDTH 640 0
DWIDTH 8 0
BBX 8 10 0 -1
BITMAP
C0
40
40
E6
18
7E
49
02
04
0F
ENDCHAR
STARTCHAR 00BE
ENCODING 190
SWIDTH 640 0
DWIDTH 8 0
BBX 8 10 0 -1
BITMAP
E0
60
30
E6
0C
32
46
0A
0F
02
ENDCHAR
STARTCHAR 00BF
ENCODING 191
SWIDTH 640 0
DWIDTH 8 0
BBX 5 8 1 -2
BITMAP
30
00
10
30
70
C8
48
78
ENDCHAR
STARTCHAR 00C0
ENCODING 192
SWIDTH 640 0
DWIDTH 8 0
BBX 8 11 0 0
BITMAP
20
30
18
78
38
3C
2C
24
7E
66
EF
ENDCHAR
STARTCHAR 00C1
ENCODING 193
SWIDTH 640 0
DWIDTH 8 0
BBX 8 11 0 0
BITMAP
08
1C
30
78
38
3C
2C
24
7E
66
EF
ENDCHAR
STARTCHAR 00C2
ENCODING 194
SWIDTH 640 0
DWIDTH 8 0
BBX 8 11 0 0
BITMAP
10
38
64
78
38
3C
2C
24
7E
66
EF
ENDCHAR
STARTCHAR 00C3
ENCODING 195
SWIDTH 640 0
DWIDTH 8 0
BBX 8 11 0 0
BITMAP
34
5C
00
78
38
3C
2C
24
7E
66
EF
ENDCHAR
STARTCHAR 00C4
ENCODING 196
SWIDTH 640 0
DWIDTH 8 0
BBX 8 10 0 0
BITMAP
2C
00
78
38
3C
2C
24
7E
66
EF
ENDCHAR
STARTCHAR 00C5
ENCODING 197
SWIDTH 640 0
DWIDTH 8 0
BBX 8 12 0 0
BITMAP
38
28
38
00
78
38
3C
2C
24
7E
66
EF
ENDCHAR
STARTCHAR 00C6
ENCODING 198
SWIDTH 640 0
DWIDTH 8 0
BBX 7 8 0 0
BITMAP
7E
3A
3A
7C
78
7A
5A
FE
ENDCHAR
STARTCHAR 00C7
ENCODING 199
SWIDTH 640 0
DWIDTH 8 0
BBX 6 10 1 -2
BITMAP
74
EC
CC
80
80
C4
7C
30
38
78
ENDCHAR
STARTCHAR 00C8
ENCODING 200
SWIDTH 640 0
DWIDTH 8 0
BBX 7 11 0 0
BITMAP
20
30
08
FE
62
62
62
78
62
62
FE
ENDCHAR
STARTCHAR 00C9
ENCODING 201
SWIDTH 640 0
DWIDTH 8 0
BBX 7 11 0 0
BITMAP
08
1C
30
FE
62
62
62
78
62
62
FE
ENDCHAR
STARTCHAR 00CA
ENCODING 202
SWIDTH 640 0
DWIDTH 8 0
BBX 7 11 0 0
BITMAP
08
1C
24
FE
62
62
62
78
62
62
FE
ENDCHAR
STARTCHAR 00CB
ENCODING 203
SWIDTH 640 0
DWIDTH 8 0
BBX 7 10 0 0
BITMAP
24
00
FE
62
62
62
78
62
62
FE
ENDCHAR
STARTCHAR 00CC
ENCODING 204
SWIDTH 640 0
DWIDTH 8 0
BBX 6 11 1 0
BITMAP
40
60
30
FC
30
30
30
30
30
30
FC
ENDCHAR
STARTCHAR 00CD
ENCODING 205
SWIDTH 640 0
DWIDTH 8 0
BBX 6 11 1 0
BITMAP
08
18
20
FC
30
30
30
30
30
30
FC
ENDCHAR
STARTCHAR 00CE
ENCODING 206
SWIDTH 640 0
DWIDTH 8 0
BBX 6 11 1 0
BITMAP
20
70
48
FC
30
30
30
30
30
30
FC
ENDCHAR
STARTCHAR 00CF
ENCODING 207
SWIDTH 640 0
DWIDTH 8 0
BBX 6 10 1 0
BITMAP
58
00
FC
30
30
30
30
30
30
FC
ENDCHAR
STARTCHAR 00D0
ENCODING 208
SWIDTH 640 0
DWIDTH 8 0
BBX 7 8 0 0
BITMAP
FC
6E
66
62
F2
66
6E
FC
ENDCHAR
STARTCHAR 00D1
ENCODING 209
SWIDTH 640 0
DWIDTH 8 0
BBX 8 11 0 0
BITMAP
34
7C
00
EF
66
76
7E
6E
6E
66
F6
ENDCHAR
STARTCHAR 00D2
ENCODING 210
SWIDTH 640 0
DWIDTH 8 0
BBX 7 11 0 0
BITMAP
20
30
08
3C
6E
46
C2
C2
46
6E
3C
ENDCHAR
STARTCHAR 00D3
ENCODING 211
SWIDTH 640 0
DWIDTH 8 0
BBX 7 11 0 0
BITMAP
08
1C
30
3C
6E
46
C2
C2
46
6E
3C
ENDCHAR
STARTCHAR 00D4
ENCODING 212
SWIDTH 640 0
DWIDTH 8 0
BBX 7 11 0 0
BITMAP
10
38
24
3C
6E
46
C2
C2
46
6E
3C
ENDCHAR
STARTCHAR 00D5
ENCODING 213
SWIDTH 640 0
DWIDTH 8 0
BBX 7 11 0 0
BITMAP
34
7C
00
3C
6E
46
C2
C2
46
6E
3C
ENDCHAR
STARTCHAR 00D6
ENCODING 214
SWIDTH 640 0
DWIDTH 8 0
BBX 7 10 0 0
BITMAP
2C
00
3C
6E
46
C2
C2
46
6E
3C
ENDCHAR
STARTCHAR 00D7
ENCODING 215
SWIDTH 640 0
DWIDTH 8 0
BBX 5 5 1 1
BITMAP
C8
78
30
78
C8
ENDCHAR
STARTCHAR 00D8
ENCODING 216
SWIDTH 640 0
DWIDTH 8 0
BBX 7 8 0 0
BITMAP
3E
6E
4E
CA
D2
76
6E
7C
ENDCHAR
STARTCHAR 00D9
ENCODING 217
SWIDTH 640 0
DWIDTH 8 0
BBX 7 11 0 0
BITMAP
20
30
18
EE
66
66
66
66
66
6E
3C
ENDCHAR
STARTCHAR 00DA
ENCODING 218
SWIDTH 640 0
DWIDTH 8 0
BBX 7 11 0 0
BITMAP
04
0C
10
EE
66
66
66
66
66
6E
3C
ENDCHAR
STARTCHAR 00DB
ENCODING 219
SWIDTH 640 0
DWIDTH 8 0
BBX 7 11 0 0
BITMAP
10
38
24
EE
66
66
66
66
66
6E
3C
ENDCHAR
STARTCHAR 00DC
ENCODING 220
SWIDTH 640 0
DWIDTH 8 0
BBX 7 10 0 0
BITMAP
2C
00
EE
66
66
66
66
66
6E
3C
ENDCHAR
STARTCHAR 00DD
ENCODING 221
SWIDTH 640 0
DWIDTH 8 0
BBX 8 11 0 0
BITMAP
04
0C
10
FF
66
2C
3C
18
18
18
7C
ENDCHAR
STARTCHAR 00DE
ENCODING 222
SWIDTH 640 0
DWIDTH 8 0
BBX 6 8 1 0
BITMAP
F0
60
78
6C
6C
7C
60
F0
ENDCHAR
STARTCHAR 00DF
ENCODING 223
SWIDTH 640 0
DWIDTH 8 0
BBX 7 8 0 0
BITMAP
3C
3C
66
6C
6E
66
66
EC
ENDCHAR
STARTCHAR 00E0
ENCODING 224
SWIDTH 640 0
DWIDTH 8 0
BBX 6 9 1 0
BITMAP
20
70
18
F8
D8
F8
C8
DC
FC
ENDCHAR
STARTCHAR 00E1
ENCODING 225
SWIDTH 640 0
DWIDTH 8 0
BBX 6 9 1 0
BITMAP
10
38
60
F8
D8
F8
C8
DC
FC
ENDCHAR
STARTCHAR 00E2
ENCODING 226
SWIDTH 640 0
DWIDTH 8 0
BBX 6 9 1 0
BITMAP
20
70
48
F8
D8
F8
C8
DC
FC
ENDCHAR
STARTCHAR 00E3
ENCODING 227
SWIDTH 640 0
DWIDTH 8 0
BBX 6 9 1 0
BITMAP
68
F8
00
F8
D8
F8
C8
DC
FC
ENDCHAR
STARTCHAR 00E4
ENCODING 228
SWIDTH 640 0
DWIDTH 8 0
BBX 6 8 1 0
BITMAP
58
00
F8
D8
F8
C8
DC
FC
ENDCHAR
STARTCHAR 00E5
ENCODING 229
SWIDTH 640 0
DWIDTH 8 0
BBX 6 10 1 0
BITMAP
30
48
30
00
F8
D8
F8
C8
DC
FC
ENDCHAR
STARTCHAR 00E6
ENCODING 230
SWIDTH 640 0
DWIDTH 8 0
BBX 8 6 0 0
BITMAP
FE
5A
7F
D8
DA
7F
ENDCHAR
STARTCHAR 00E7
ENCODING 231
SWIDTH 640 0
DWIDTH 8 0
BBX 6 9 1 -3
BITMAP
7C
FC
CC
C0
C4
7C
30
38
78
ENDCHAR
STARTCHAR 00E8
ENCODING 232
SWIDTH 640 0
DWIDTH 8 0
BBX 6 9 1 0
BITMAP
40
70
18
78
CC
FC
C0
EC
7C
ENDCHAR
STARTCHAR 00E9
ENCODING 233
SWIDTH 640 0
DWIDTH 8 0
BBX 6 9 1 0
BITMAP
10
38
60
78
CC
FC
C0
EC
7C
ENDCHAR
STARTCHAR 00EA
ENCODING 234
SWIDTH 640 0
DWIDTH 8 0
BBX 6 9 1 0
BITMAP
20
30
48
78
CC
FC
C0
EC
7C
ENDCHAR
STARTCHAR 00EB
ENCODING 235
SWIDTH 640 0
DWIDTH 8 0
BBX 6 8 1 0
BITMAP
58
00
78
CC
FC
C0
EC
7C
ENDCHAR
STARTCHAR 00EC
ENCODING 236
SWIDTH 640 0
DWIDTH 8 0
BBX 6 9 1 0
BITMAP
40
60
30
F0
30
30
30
30
FC
ENDCHAR
STARTCHAR 00ED
ENCODING 237
SWIDTH 640 0
DWIDTH 8 0
BBX 6 9 1 0
BITMAP
10
38
60
F0
30
30
30
30
FC
ENDCHAR
STARTCHAR 00EE
ENCODING 238
SWIDTH 640 0
DWIDTH 8 0
BBX 6 9 1 0
BITMAP
20
70
48
F0
30
30
30
30
FC
ENDCHAR
STARTCHAR 00EF
ENCODING 239
SWIDTH 640 0
DWIDTH 8 0
BBX 6 8 1 0
BITMAP
58
00
F0
30
30
30
30
FC
ENDCHAR
STARTCHAR 00F0
ENCODING 240
SWIDTH 640 0
DWIDTH 8 0
BBX 6 8 1 0
BITMAP
78
78
78
CC
CC
CC
DC
78
ENDCHAR
STARTCHAR 00F1
ENCODING 241
SWIDTH 640 0
DWIDTH 8 0
BBX 8 9 0 0
BITMAP
34
7C
00
FC
76
66
66
66
FF
ENDCHAR
STARTCHAR 00F2
ENCODING 242
SWIDTH 640 0
DWIDTH 8 0
BBX 6 9 1 0
BITMAP
40
60
10
78
DC
8C
8C
DC
78
ENDCHAR
STARTCHAR 00F3
ENCODING 243
SWIDTH 640 0
DWIDTH 8 0
BBX 6 9 1 0
BITMAP
10
38
60
78
DC
8C
8C
DC
78
ENDCHAR
STARTCHAR 00F4
ENCODING 244
SWIDTH 640 0
DWIDTH 8 0
BBX 6 9 1 0
BITMAP
20
70
48
78
DC
8C
8C
DC
78
ENDCHAR
STARTCHAR 00F5
ENCODING 245
SWIDTH 640 0
DWIDTH 8 0
BBX 6 9 1 0
BITMAP
68
F8
00
78
DC
8C
8C
DC
78
ENDCHAR
STARTCHAR 00F6
ENCODING 246
SWIDTH 640 0
DWIDTH 8 0
BBX 6 8 1 0
BITMAP
58
00
78
DC
8C
8C
DC
78
ENDCHAR
STARTCHAR 00F7
ENCODING 247
SWIDTH 640 0
DWIDTH 8 0
BBX 6 6 1 1
BITMAP
30
00
FC
00
00
30
ENDCHAR
STARTCHAR 00F8
ENCODING 248
SWIDTH 640 0
DWIDTH 8 0
BBX 6 7 1 0
BITMAP
04
7C
DC
9C
AC
DC
F8
ENDCHAR
STARTCHAR 00F9
ENCODING 249
SWIDTH 640 0
DWIDTH 8 0
BBX 7 9 0 0
BITMAP
20
30
08
EE
66
66
66
6E
36
ENDCHAR
STARTCHAR 00FA
ENCODING 250
SWIDTH 640 0
DWIDTH 8 0
BBX 7 9 0 0
BITMAP
04
0C
10
EE
66
66
66
6E
36
ENDCHAR
STARTCHAR 00FB
ENCODING 251
SWIDTH 640 0
DWIDTH 8 0
BBX 7 9 0 0
BITMAP
10
38
24
EE
66
66
66
6E
36
ENDCHAR
STARTCHAR 00FC
ENCODING 252
SWIDTH 640 0
DWIDTH 8 0
BBX 7 8 0 0
BITMAP
2C
00
EE
66
66
66
6E
36
ENDCHAR
STARTCHAR 00FD
ENCODING 253
SWIDTH 640 0
DWIDTH 8 0
BBX 8 11 0 -2
BITMAP
04
0C
10
FF
66
24
3C
18
18
30
60
ENDCHAR
STARTCHAR 00FE
ENCODING 254
SWIDTH 640 0
DWIDTH 8 0
BBX 7 10 0 -2
BITMAP
E0
60
7C
76
66
66
76
7C
60
F0
ENDCHAR
STARTCHAR 00FF
ENCODING 255
SWIDTH 640 0
DWIDTH 8 0
BBX 8 10 0 -2
BITMAP
2C
00
FF
66
24
3C
18
18
30
60
ENDCHAR
STARTCHAR 0100
ENCODING 256
SWIDTH 640 0
DWIDTH 8 0
BBX 8 10 0 0
BITMAP
7C
00
78
38
3C
2C
24
7E
66
EF
ENDCHAR
STARTCHAR 0101
ENCODING 257
SWIDTH 640 0
DWIDTH 8 0
BBX 6 8 1 0
BITMAP
78
00
F8
D8
F8
C8
DC
FC
ENDCHAR
STARTCHAR 0102
ENCODING 258
SWIDTH 640 0
DWIDTH 8 0
BBX 8 11 0 0
BITMAP
24
3C
00
78
38
3C
2C
24
7E
66
EF
ENDCHAR
STARTCHAR 0103
ENCODING 259
SWIDTH 640 0
DWIDTH 8 0
BBX 6 9 1 0
BITMAP
48
78
00
F8
D8
F8
C8
DC
FC
ENDCHAR
STARTCHAR 0104
ENCODING 260
SWIDTH 640 0
DWIDTH 8 0
BBX 8 11 0 -3
BITMAP
78
38
3C
2C
24
7E
66
EF
04
0C
0F
ENDCHAR
STARTCHAR 0105
ENCODING 261
SWIDTH 640 0
DWIDTH 8 0
BBX 7 9 1 -3
BITMAP
F8
D8
F8
C8
DC
FC
08
18
1E
ENDCHAR
STARTCHAR 0106
ENCODING 262
SWIDTH 640 0
DWIDTH 8 0
BBX 6 11 1 0
BITMAP
08
18
20
74
EC
CC
80
80
C0
EC
78
ENDCHAR
STARTCHAR 0107
ENCODING 263
SWIDTH 640 0
DWIDTH 8 0
BBX 6 9 1 0
BITMAP
08
18
20
7C
FC
CC
C0
EC
78
ENDCHAR
STARTCHAR 0108
ENCODING 264
SWIDTH 640 0
DWIDTH 8 0
BBX 6 11 1 0
BITMAP
10
38
48
74
EC
CC
80
80
C0
EC
78
ENDCHAR
STARTCHAR 0109
ENCODING 265
SWIDTH 640 0
DWIDTH 8 0
BBX 6 9 1 0
BITMAP
20
30
48
7C
FC
CC
C0
EC
78
ENDCHAR
STARTCHAR 010A
ENCODING 266
SWIDTH 640 0
DWIDTH 8 0
BBX 6 10 1 0
BITMAP
30
00
74
EC
CC
80
80
C0
EC
78
ENDCHAR
STARTCHAR 010B
ENCODING 267
SWIDTH 640 0
DWIDTH 8 0
BBX 6 8 1 0
BITMAP
30
00
7C
FC
CC
C0
EC
78
ENDCHAR
STARTCHAR 010C
ENCODING 268
SWIDTH 640 0
DWIDTH 8 0
BBX 6 12 1 0
BITMAP
48
78
30
00
74
EC
CC
80
80
C0
EC
78
ENDCHAR
STARTCHAR 010D
ENCODING 269
SWIDTH 640 0
DWIDTH 8 0
BBX 6 10 1 0
BITMAP
48
78
30
00
7C
FC
CC
C0
EC
78
ENDCHAR
STARTCHAR 010E
ENCODING 270
SWIDTH 640 0
DWIDTH 8 0
BBX 7 12 0 0
BITMAP
24
7C
18
00
FC
6E
66
62
62
66
6E
FC
ENDCHAR
STARTCHAR 010F
ENCODING 271
SWIDTH 640 0
DWIDTH 8 0
BBX 9 8 0 0
BITMAP
1D80
0D00
7D00
6C00
4C00
CC00
6C00
7600
ENDCHAR
STARTCHAR 0110
ENCODING 272
SWIDTH 640 0
DWIDTH 8 0
BBX 7 8 0 0
BITMAP
FC
6E
66
62
7A
66
6E
FC
ENDCHAR
STARTCHAR 0111
ENCODING 273
SWIDTH 640 0
DWIDTH 8 0
BBX 7 8 1 0
BITMAP
3E
08
08
78
D8
88
D8
7C
ENDCHAR
STARTCHAR 0112
ENCODING 274
SWIDTH 640 0
DWIDTH 8 0
BBX 7 10 0 0
BITMAP
3C
00
FE
62
62
62
78
62
62
FE
ENDCHAR
STARTCHAR 0113
ENCODING 275
SWIDTH 640 0
DWIDTH 8 0
BBX 6 8 1 0
BITMAP
78
00
78
CC
FC
C0
EC
7C
ENDCHAR
STARTCHAR 0114
ENCODING 276
SWIDTH 640 0
DWIDTH 8 0
BBX 7 11 0 0
BITMAP
24
3C
00
FE
62
62
62
78
62
62
FE
ENDCHAR
STARTCHAR 0115
ENCODING 277
SWIDTH 640 0
DWIDTH 8 0
BBX 6 9 1 0
BITMAP
48
78
00
78
CC
FC
C0
EC
7C
ENDCHAR
STARTCHAR 0116
ENCODING 278
SWIDTH 640 0
DWIDTH 8 0
BBX 7 10 0 0
BITMAP
18
00
FE
62
62
62
78
62
62
FE
ENDCHAR
STARTCHAR 0117
ENCODING 279
SWIDTH 640 0
DWIDTH 8 0
BBX 6 8 1 0
BITMAP
30
00
78
CC
FC
C0
EC
7C
ENDCHAR
STARTCHAR 0118
ENCODING 280
SWIDTH 640 0
DWIDTH 8 0
BBX 7 11 0 -3
BITMAP
FE
62
62
62
78
62
62
FE
04
0C
0E
ENDCHAR
STARTCHAR 0119
ENCODING 281
SWIDTH 640 0
DWIDTH 8 0
BBX 6 9 1 -3
BITMAP
78
CC
FC
C0
EC
7C
18
10
1C
ENDCHAR
STARTCHAR 011A
ENCODING 282
SWIDTH 640 0
DWIDTH 8 0
BBX 7 12 0 0
BITMAP
24
3C
18
00
FE
62
62
62
78
62
62
FE
ENDCHAR
STARTCHAR 011B
ENCODING 283
SWIDTH 640 0
DWIDTH 8 0
BBX 6 10 1 0
BITMAP
48
78
30
00
78
CC
FC
C0
EC
7C
ENDCHAR
STARTCHAR 011C
ENCODING 284
SWIDTH 640 0
DWIDTH 8 0
BBX 8 11 0 0
BITMAP
08
1C
24
3E
6E
46
C0
CF
46
76
3C
ENDCHAR
STARTCHAR 011D
ENCODING 285
SWIDTH 640 0
DWIDTH 8 0
BBX 7 11 1 -2
BITMAP
20
70
48
7E
DC
8C
8C
DC
7C
D8
F8
ENDCHAR
STARTCHAR 011E
ENCODING 286
SWIDTH 640 0
DWIDTH 8 0
BBX 8 11 0 0
BITMAP
24
3C
00
3E
6E
46
C0
CF
46
76
3C
ENDCHAR
STARTCHAR 011F
ENCODING 287
SWIDTH 640 0
DWIDTH 8 0
BBX 7 11 1 -2
BITMAP
48
78
00
7E
DC
8C
8C
DC
7C
D8
F8
ENDCHAR
STARTCHAR 0120
ENCODING 288
SWIDTH 640 0
DWIDTH 8 0
BBX 8 10 0 0
BITMAP
18
00
3E
6E
46
C0
CF
46
76
3C
ENDCHAR
STARTCHAR 0121
ENCODING 289
SWIDTH 640 0
DWIDTH 8 0
BBX 7 10 1 -2
BITMAP
30
00
7E
DC
8C
8C
DC
7C
D8
F8
ENDCHAR
STARTCHAR 0122
ENCODING 290
SWIDTH 640 0
DWIDTH 8 0
BBX 8 11 0 -3
BITMAP
3E
6E
46
C0
CF
46
76
3C
18
10
10
ENDCHAR
STARTCHAR 0123
ENCODING 291
SWIDTH 640 0
DWIDTH 8 0
BBX 7 12 1 -2
BITMAP
10
30
30
00
7E
DC
8C
8C
DC
7C
D8
F8
ENDCHAR
STARTCHAR 0124
ENCODING 292
SWIDTH 640 0
DWIDTH 8 0
BBX 7 11 0 0
BITMAP
10
38
24
EE
66
66
66
7E
66
66
EE
ENDCHAR
STARTCHAR 0125
ENCODING 293
SWIDTH 640 0
DWIDTH 8 0
BBX 7 11 0 0
BITMAP
10
38
24
E0
60
7C
76
66
66
66
FE
ENDCHAR
STARTCHAR 0126
ENCODING 294
SWIDTH 640 0
DWIDTH 8 0
BBX 8 8 0 0
BITMAP
EE
66
FF
66
7E
66
66
EE
ENDCHAR
STARTCHAR 0127
ENCODING 295
SWIDTH 640 0
DWIDTH 8 0
BBX 8 8 0 0
BITMAP
F8
60
60
7C
76
66
66
FF
ENDCHAR
STARTCHAR 0128
ENCODING 296
SWIDTH 640 0
DWIDTH 8 0
BBX 6 11 1 0
BITMAP
68
F8
00
FC
30
30
30
30
30
30
FC
ENDCHAR
STARTCHAR 0129
ENCODING 297
SWIDTH 640 0
DWIDTH 8 0
BBX 6 9 1 0
BITMAP
68
F8
00
F0
30
30
30
30
FC
ENDCHAR
STARTCHAR 012A
ENCODING 298
SWIDTH 640 0
DWIDTH 8 0
BBX 6 10 1 0
BITMAP
78
00
FC
30
30
30
30
30
30
FC
ENDCHAR
STARTCHAR 012B
ENCODING 299
SWIDTH 640 0
DWIDTH 8 0
BBX 6 8 1 0
BITMAP
78
00
F0
30
30
30
30
FC
ENDCHAR
STARTCHAR 012C
ENCODING 300
SWIDTH 640 0
DWIDTH 8 0
BBX 6 11 1 0
BITMAP
48
78
00
FC
30
30
30
30
30
30
FC
ENDCHAR
STARTCHAR 012D
ENCODING 301
SWIDTH 640 0
DWIDTH 8 0
BBX 6 9 1 0
BITMAP
48
78
00
F0
30
30
30
30
FC
ENDCHAR
STARTCHAR 012E
ENCODING 302
SWIDTH 640 0
DWIDTH 8 0
BBX 6 11 1 -3
BITMAP
FC
30
30
30
30
30
30
FC
20
60
70
ENDCHAR
STARTCHAR 012F
ENCODING 303
SWIDTH 640 0
DWIDTH 8 0
BBX 6 11 1 -3
BITMAP
30
00
F0
30
30
30
30
FC
20
60
70
ENDCHAR
STARTCHAR 0130
ENCODING 304
SWIDTH 640 0
DWIDTH 8 0
BBX 6 10 1 0
BITMAP
30
00
FC
30
30
30
30
30
30
FC
ENDCHAR
STARTCHAR 0131
ENCODING 305
SWIDTH 640 0
DWIDTH 8 0
BBX 6 6 1 0
BITMAP
F0
30
30
30
30
FC
ENDCHAR
STARTCHAR 0132
ENCODING 306
SWIDTH 640 0
DWIDTH 8 0
BBX 8 8 0 0
BITMAP
EF
42
42
42
42
5A
5E
FE
ENDCHAR
STARTCHAR 0133
ENCODING 307
SWIDTH 640 0
DWIDTH 8 0
BBX 7 10 0 -2
BITMAP
62
00
EE
62
62
62
62
F2
16
1C
ENDCHAR
STARTCHAR 0134
ENCODING 308
SWIDTH 640 0
DWIDTH 8 0
BBX 6 11 1 0
BITMAP
10
38
24
7C
18
18
18
98
98
D8
F0
ENDCHAR
STARTCHAR 0135
ENCODING 309
SWIDTH 640 0
DWIDTH 8 0
BBX 6 11 1 -2
BITMAP
10
38
6C
F8
18
18
18
18
18
D8
F0
ENDCHAR
STARTCHAR 0136
ENCODING 310
SWIDTH 640 0
DWIDTH 8 0
BBX 8 11 0 -3
BITMAP
FF
66
6C
78
7C
64
66
F3
18
18
10
ENDCHAR
STARTCHAR 0137
ENCODING 311
SWIDTH 640 0
DWIDTH 8 0
BBX 7 11 0 -3
BITMAP
E0
60
6E
66
78
7C
66
F6
18
10
10
ENDCHAR
STARTCHAR 0139
ENCODING 313
SWIDTH 640 0
DWIDTH 8 0
BBX 7 11 0 0
BITMAP
10
38
60
F8
20
20
20
22
22
22
FE
ENDCHAR
STARTCHAR 013A
ENCODING 314
SWIDTH 640 0
DWIDTH 8 0
BBX 6 11 1 0
BITMAP
10
38
60
F0
30
30
30
30
30
30
FC
ENDCHAR
STARTCHAR 013B
ENCODING 315
SWIDTH 640 0
DWIDTH 8 0
BBX 7 11 0 -3
BITMAP
F8
20
20
20
22
22
22
FE
18
10
10
ENDCHAR
STARTCHAR 013C
ENCODING 316
SWIDTH 640 0
DWIDTH 8 0
BBX 6 11 1 -3
BITMAP
F0
30
30
30
30
30
30
FC
30
20
20
ENDCHAR
STARTCHAR 013D
ENCODING 317
SWIDTH 640 0
DWIDTH 8 0
BBX 8 8 0 0
BITMAP
F8
23
22
26
22
22
22
FE
ENDCHAR
STARTCHAR 013E
ENCODING 318
SWIDTH 640 0
DWIDTH 8 0
BBX 7 8 1 0
BITMAP
E6
24
2C
20
20
20
20
FC
ENDCHAR
STARTCHAR 013F
ENCODING 319
SWIDTH 640 0
DWIDTH 8 0
BBX 7 8 0 0
BITMAP
F8
20
2C
2C
20
22
22
FE
ENDCHAR
STARTCHAR 0140
ENCODING 320
SWIDTH 640 0
DWIDTH 8 0
BBX 6 8 1 0
BITMAP
E0
20
20
24
20
20
20
FC
ENDCHAR
STARTCHAR 0141
ENCODING 321
SWIDTH 640 0
DWIDTH 8 0
BBX 7 8 0 0
BITMAP
F8
20
28
38
62
E2
22
FE
ENDCHAR
STARTCHAR 0142
ENCODING 322
SWIDTH 640 0
DWIDTH 8 0
BBX 6 8 1 0
BITMAP
F0
30
3C
38
F0
B0
30
FC
ENDCHAR
STARTCHAR 0143
ENCODING 323
SWIDTH 640 0
DWIDTH 8 0
BBX 8 11 0 0
BITMAP
04
0C
10
EF
66
76
7E
6E
6E
66
F6
ENDCHAR
STARTCHAR 0144
ENCODING 324
SWIDTH 640 0
DWIDTH 8 0
BBX 8 9 0 0
BITMAP
04
0C
10
FC
76
66
66
66
FF
ENDCHAR
STARTCHAR 0145
ENCODING 325
SWIDTH 640 0
DWIDTH 8 0
BBX 8 11 0 -3
BITMAP
EF
66
76
7E
6E
6E
66
F6
18
10
10
ENDCHAR
STARTCHAR 0146
ENCODING 326
SWIDTH 640 0
DWIDTH 8 0
BBX 8 9 0 -3
BITMAP
FC
76
66
66
66
FF
18
10
10
ENDCHAR
STARTCHAR 0147
ENCODING 327
SWIDTH 640 0
DWIDTH 8 0
BBX 8 12 0 0
BITMAP
24
3C
18
00
EF
66
76
7E
6E
6E
66
F6
ENDCHAR
STARTCHAR 0148
ENCODING 328
SWIDTH 640 0
DWIDTH 8 0
BBX 8 10 0 0
BITMAP
24
3C
18
00
FC
76
66
66
66
FF
ENDCHAR
STARTCHAR 014A
ENCODING 330
SWIDTH 640 0
DWIDTH 8 0
BBX 8 10 0 -2
BITMAP
EF
66
76
7E
6E
6E
66
F6
06
1C
ENDCHAR
STARTCHAR 014B
ENCODING 331
SWIDTH 640 0
DWIDTH 8 0
BBX 6 8 1 -2
BITMAP
D8
6C
4C
4C
4C
EC
0C
38
ENDCHAR
STARTCHAR 014C
ENCODING 332
SWIDTH 640 0
DWIDTH 8 0
BBX 7 10 0 0
BITMAP
3C
00
3C
6E
46
C2
C2
46
6E
3C
ENDCHAR
STARTCHAR 014D
ENCODING 333
SWIDTH 640 0
DWIDTH 8 0
BBX 6 8 1 0
BITMAP
78
00
78
DC
8C
8C
DC
78
ENDCHAR
STARTCHAR 014E
ENCODING 334
SWIDTH 640 0
DWIDTH 8 0
BBX 7 11 0 0
BITMAP
24
3C
00
3C
6E
46
C2
C2
46
6E
3C
ENDCHAR
STARTCHAR 014F
ENCODING 335
SWIDTH 640 0
DWIDTH 8 0
BBX 6 9 1 0
BITMAP
48
78
00
78
DC
8C
8C
DC
78
ENDCHAR
STARTCHAR 0150
ENCODING 336
SWIDTH 640 0
DWIDTH 8 0
BBX 7 12 0 0
BITMAP
12
1E
24
00
3C
6E
46
C2
C2
46
6E
3C
ENDCHAR
STARTCHAR 0151
ENCODING 337
SWIDTH 640 0
DWIDTH 8 0
BBX 6 10 1 0
BITMAP
24
3C
48
00
78
DC
8C
8C
DC
78
ENDCHAR
STARTCHAR 0152
ENCODING 338
SWIDTH 640 0
DWIDTH 8 0
BBX 7 8 0 0
BITMAP
3E
7A
5A
DC
D8
5A
7A
3E
ENDCHAR
STARTCHAR 0153
ENCODING 339
SWIDTH 640 0
DWIDTH 8 0
BBX 8 6 0 0
BITMAP
7E
DA
DF
D8
DA
7F
ENDCHAR
STARTCHAR 0154
ENCODING 340
SWIDTH 640 0
DWIDTH 8 0
BBX 8 11 0 0
BITMAP
08
1C
30
FC
66
66
66
7C
6C
66
F7
ENDCHAR
STARTCHAR 0155
ENCODING 341
SWIDTH 640 0
DWIDTH 8 0
BBX 6 9 1 0
BITMAP
08
18
30
EC
74
60
60
60
F8
ENDCHAR
STARTCHAR 0156
ENCODING 342
SWIDTH 640 0
DWIDTH 8 0
BBX 8 11 0 -3
BITMAP
FC
66
66
66
7C
6C
66
F7
18
10
10
ENDCHAR
STARTCHAR 0157
ENCODING 343
SWIDTH 640 0
DWIDTH 8 0
BBX 6 9 1 -3
BITMAP
EC
74
60
60
60
F8
60
60
40
ENDCHAR
STARTCHAR 0158
ENCODING 344
SWIDTH 640 0
DWIDTH 8 0
BBX 8 12 0 0
BITMAP
24
7C
18
00
FC
66
66
66
7C
6C
66
F7
ENDCHAR
STARTCHAR 0159
ENCODING 345
SWIDTH 640 0
DWIDTH 8 0
BBX 6 10 1 0
BITMAP
48
78
30
00
EC
74
60
60
60
F8
ENDCHAR
STARTCHAR 015A
ENCODING 346
SWIDTH 640 0
DWIDTH 8 0
BBX 6 11 1 0
BITMAP
10
38
60
7C
DC
CC
F8
3C
8C
EC
B8
ENDCHAR
STARTCHAR 015B
ENCODING 347
SWIDTH 640 0
DWIDTH 8 0
BBX 6 9 1 0
BITMAP
10
38
60
7C
DC
F0
3C
CC
F8
ENDCHAR
STARTCHAR 015C
ENCODING 348
SWIDTH 640 0
DWIDTH 8 0
BBX 6 11 1 0
BITMAP
20
70
48
7C
DC
CC
F8
3C
8C
EC
B8
ENDCHAR
STARTCHAR 015D
ENCODING 349
SWIDTH 640 0
DWIDTH 8 0
BBX 6 9 1 0
BITMAP
20
70
48
7C
DC
F0
3C
CC
F8
ENDCHAR
STARTCHAR 015E
ENCODING 350
SWIDTH 640 0
DWIDTH 8 0
BBX 6 11 1 -3
BITMAP
7C
DC
CC
F8
1C
8C
FC
B8
30
18
78
ENDCHAR
STARTCHAR 015F
ENCODING 351
SWIDTH 640 0
DWIDTH 8 0
BBX 6 9 1 -3
BITMAP
7C
DC
F0
3C
CC
F8
30
18
78
ENDCHAR
STARTCHAR 0160
ENCODING 352
SWIDTH 640 0
DWIDTH 8 0
BBX 6 12 1 0
BITMAP
48
78
30
00
7C
DC
CC
F8
3C
8C
EC
B8
ENDCHAR
STARTCHAR 0161
ENCODING 353
SWIDTH 640 0
DWIDTH 8 0
BBX 6 10 1 0
BITMAP
48
78
30
00
7C
DC
F0
3C
CC
F8
ENDCHAR
STARTCHAR 0162
ENCODING 354
SWIDTH 640 0
DWIDTH 8 0
BBX 6 11 1 -3
BITMAP
FC
B4
B4
B4
30
30
30
F8
30
38
78
ENDCHAR
STARTCHAR 0163
ENCODING 355
SWIDTH 640 0
DWIDTH 8 0
BBX 6 11 1 -3
BITMAP
60
60
FC
60
60
60
6C
38
30
18
78
ENDCHAR
STARTCHAR 0164
ENCODING 356
SWIDTH 640 0
DWIDTH 8 0
BBX 6 12 1 0
BITMAP
48
78
30
00
FC
B4
B4
B4
30
30
30
F8
ENDCHAR
STARTCHAR 0165
ENCODING 357
SWIDTH 640 0
DWIDTH 8 0
BBX 6 10 1 0
BITMAP
0C
08
68
60
FC
60
60
60
6C
38
ENDCHAR
STARTCHAR 0166
ENCODING 358
SWIDTH 640 0
DWIDTH 8 0
BBX 6 8 1 0
BITMAP
FC
B4
B4
30
78
30
30
F8
ENDCHAR
STARTCHAR 0167
ENCODING 359
SWIDTH 640 0
DWIDTH 8 0
BBX 6 8 1 0
BITMAP
60
60
FC
60
F8
60
6C
38
ENDCHAR
STARTCHAR 0168
ENCODING 360
SWIDTH 640 0
DWIDTH 8 0
BBX 7 11 0 0
BITMAP
34
7C
00
EE
66
66
66
66
66
6E
3C
ENDCHAR
STARTCHAR 0169
ENCODING 361
SWIDTH 640 0
DWIDTH 8 0
BBX 7 9 0 0
BITMAP
34
7C
00
EE
66
66
66
6E
36
ENDCHAR
STARTCHAR 016A
ENCODING 362
SWIDTH 640 0
DWIDTH 8 0
BBX 7 10 0 0
BITMAP
3C
00
EE
66
66
66
66
66
6E
3C
ENDCHAR
STARTCHAR 016B
ENCODING 363
SWIDTH 640 0
DWIDTH 8 0
BBX 7 8 0 0
BITMAP
3C
00
EE
66
66
66
6E
36
ENDCHAR
STARTCHAR 016C
ENCODING 364
SWIDTH 640 0
DWIDTH 8 0
BBX 7 11 0 0
BITMAP
24
3C
00
EE
66
66
66
66
66
6E
3C
ENDCHAR
STARTCHAR 016D
ENCODING 365
SWIDTH 640 0
DWIDTH 8 0
BBX 7 9 0 0
BITMAP
24
3C
00
EE
66
66
66
6E
36
ENDCHAR
STARTCHAR 016E
ENCODING 366
SWIDTH 640 0
DWIDTH 8 0
BBX 7 12 0 0
BITMAP
18
2C
38
00
EE
66
66
66
66
66
6E
3C
ENDCHAR
STARTCHAR 016F
ENCODING 367
SWIDTH 640 0
DWIDTH 8 0
BBX 7 10 0 0
BITMAP
38
28
38
00
EE
66
66
66
6E
36
ENDCHAR
STARTCHAR 0170
ENCODING 368
SWIDTH 640 0
DWIDTH 8 0
BBX 7 12 0 0
BITMAP
12
1E
24
00
EE
66
66
66
66
66
6E
3C
ENDCHAR
STARTCHAR 0171
ENCODING 369
SWIDTH 640 0
DWIDTH 8 0
BBX 7 10 0 0
BITMAP
12
36
2C
00
EE
66
66
66
6E
36
ENDCHAR
STARTCHAR 0172
ENCODING 370
SWIDTH 640 0
DWIDTH 8 0
BBX 7 11 0 -3
BITMAP
EE
66
66
66
66
66
6E
3C
18
10
1C
ENDCHAR
STARTCHAR 0173
ENCODING 371
SWIDTH 640 0
DWIDTH 8 0
BBX 8 9 0 -3
BITMAP
EE
66
66
66
6E
36
04
0C
0F
ENDCHAR
STARTCHAR 0174
ENCODING 372
SWIDTH 640 0
DWIDTH 8 0
BBX 8 11 0 0
BITMAP
10
18
24
E7
42
5A
5A
5A
7E
66
66
ENDCHAR
STARTCHAR 0175
ENCODING 373
SWIDTH 640 0
DWIDTH 8 0
BBX 8 9 0 0
BITMAP
10
38
24
E7
D2
5A
5E
6E
64
ENDCHAR
STARTCHAR 0176
ENCODING 374
SWIDTH 640 0
DWIDTH 8 0
BBX 8 11 0 0
BITMAP
10
18
24
FF
66
2C
3C
18
18
18
7C
ENDCHAR
STARTCHAR 0177
ENCODING 375
SWIDTH 640 0
DWIDTH 8 0
BBX 8 11 0 -2
BITMAP
10
18
24
FF
66
24
3C
18
18
30
60
ENDCHAR
STARTCHAR 0178
ENCODING 376
SWIDTH 640 0
DWIDTH 8 0
BBX 8 10 0 0
BITMAP
2C
00
FF
66
2C
3C
18
18
18
7C
ENDCHAR
STARTCHAR 0179
ENCODING 377
SWIDTH 640 0
DWIDTH 8 0
BBX 6 11 1 0
BITMAP
08
18
20
FC
CC
D8
30
70
6C
CC
FC
ENDCHAR
STARTCHAR 017A
ENCODING 378
SWIDTH 640 0
DWIDTH 8 0
BBX 6 9 1 0
BITMAP
08
38
20
FC
98
30
60
EC
FC
ENDCHAR
STARTCHAR 017B
ENCODING 379
SWIDTH 640 0
DWIDTH 8 0
BBX 6 10 1 0
BITMAP
30
00
FC
CC
D8
30
70
6C
CC
FC
ENDCHAR
STARTCHAR 017C
ENCODING 380
SWIDTH 640 0
DWIDTH 8 0
BBX 6 8 1 0
BITMAP
30
00
FC
98
30
60
EC
FC
ENDCHAR
STARTCHAR 017D
ENCODING 381
SWIDTH 640 0
DWIDTH 8 0
BBX 6 12 1 0
BITMAP
48
78
30
00
FC
CC
D8
30
70
6C
CC
FC
ENDCHAR
STARTCHAR 017E
ENCODING 382
SWIDTH 640 0
DWIDTH 8 0
BBX 6 10 1 0
BITMAP
48
78
30
00
FC
98
30
60
EC
FC
ENDCHAR
STARTCHAR 0192
ENCODING 402
SWIDTH 640 0
DWIDTH 8 0
BBX 7 10 0 -2
BITMAP
0E
18
18
7E
18
10
10
10
30
F0
ENDCHAR
STARTCHAR 0218
ENCODING 536
SWIDTH 640 0
DWIDTH 8 0
BBX 6 11 1 -3
BITMAP
7C
DC
CC
F8
3C
8C
EC
B8
30
20
20
ENDCHAR
STARTCHAR 0219
ENCODING 537
SWIDTH 640 0
DWIDTH 8 0
BBX 6 9 1 -3
BITMAP
7C
DC
F0
3C
CC
F8
30
20
20
ENDCHAR
STARTCHAR 021A
ENCODING 538
SWIDTH 640 0
DWIDTH 8 0
BBX 6 11 1 -3
BITMAP
FC
B4
B4
B4
30
30
30
F8
30
20
20
ENDCHAR
STARTCHAR 021B
ENCODING 539
SWIDTH 640 0
DWIDTH 8 0
BBX 6 11 1 -3
BITMAP
60
60
FC
60
60
60
6C
38
30
30
20
ENDCHAR
STARTCHAR 0237
ENCODING 567
SWIDTH 640 0
DWIDTH 8 0
BBX 5 8 1 -2
BITMAP
F8
18
18
18
18
18
D8
F0
ENDCHAR
STARTCHAR 02C6
ENCODING 710
SWIDTH 640 0
DWIDTH 8 0
BBX 4 3 2 6
BITMAP
40
E0
90
ENDCHAR
STARTCHAR 02C7
ENCODING 711
SWIDTH 640 0
DWIDTH 8 0
BBX 4 3 2 7
BITMAP
90
F0
60
ENDCHAR
STARTCHAR 02D8
ENCODING 728
SWIDTH 640 0
DWIDTH 8 0
BBX 4 2 2 7
BITMAP
90
F0
ENDCHAR
STARTCHAR 02D9
ENCODING 729
SWIDTH 640 0
DWIDTH 8 0
BBX 2 1 3 7
BITMAP
C0
ENDCHAR
STARTCHAR 02DA
ENCODING 730
SWIDTH 640 0
DWIDTH 8 0
BBX 4 3 2 7
BITMAP
60
B0
E0
ENDCHAR
STARTCHAR 02DB
ENCODING 731
SWIDTH 640 0
DWIDTH 8 0
BBX 3 3 2 -3
BITMAP
60
C0
E0
ENDCHAR
STARTCHAR 02DC
ENCODING 732
SWIDTH 640 0
DWIDTH 8 0
BBX 5 2 1 7
BITMAP
68
F8
ENDCHAR
STARTCHAR 02DD
ENCODING 733
SWIDTH 640 0
DWIDTH 8 0
BBX 5 3 2 7
BITMAP
48
78
90
ENDCHAR
STARTCHAR 0326
ENCODING 806
SWIDTH 0 0
DWIDTH 0 0
BBX 2 3 -5 -3
BITMAP
C0
C0
80
ENDCHAR
STARTCHAR 0394
ENCODING 916
SWIDTH 640 0
DWIDTH 8 0
BBX 6 8 1 0
BITMAP
30
30
78
78
58
C8
CC
FC
ENDCHAR
STARTCHAR 03A9
ENCODING 937
SWIDTH 640 0
DWIDTH 8 0
BBX 8 8 0 0
BITMAP
3C
7E
46
C2
C2
66
6E
EF
ENDCHAR
STARTCHAR 03BC
ENCODING 956
SWIDTH 640 0
DWIDTH 8 0
BBX 6 9 1 -3
BITMAP
CC
CC
CC
CC
FC
FC
C0
C0
C0
ENDCHAR
STARTCHAR 03C0
ENCODING 960
SWIDTH 640 0
DWIDTH 8 0
BBX 7 6 0 0
BITMAP
FE
64
64
64
64
64
ENDCHAR
STARTCHAR 1E80
ENCODING 7808
SWIDTH 640 0
DWIDTH 8 0
BBX 8 11 0 0
BITMAP
20
30
18
E7
42
5A
5A
5A
7E
66
66
ENDCHAR
STARTCHAR 1E81
ENCODING 7809
SWIDTH 640 0
DWIDTH 8 0
BBX 8 9 0 0
BITMAP
20
30
18
E7
D2
5A
5E
6E
64
ENDCHAR
STARTCHAR 1E82
ENCODING 7810
SWIDTH 640 0
DWIDTH 8 0
BBX 8 11 0 0
BITMAP
04
0C
10
E7
42
5A
5A
5A
7E
66
66
ENDCHAR
STARTCHAR 1E83
ENCODING 7811
SWIDTH 640 0
DWIDTH 8 0
BBX 8 9 0 0
BITMAP
04
0C
10
E7
D2
5A
5E
6E
64
ENDCHAR
STARTCHAR 1E84
ENCODING 7812
SWIDTH 640 0
DWIDTH 8 0
BBX 8 10 0 0
BITMAP
24
00
E7
42
5A
5A
5A
7E
66
66
ENDCHAR
STARTCHAR 1E85
ENCODING 7813
SWIDTH 640 0
DWIDTH 8 0
BBX 8 8 0 0
BITMAP
2C
00
E7
D2
5A
5E
6E
64
ENDCHAR
STARTCHAR 1EF2
ENCODING 7922
SWIDTH 640 0
DWIDTH 8 0
BBX 8 11 0 0
BITMAP
20
30
18
FF
66
2C
3C
18
18
18
7C
ENDCHAR
STARTCHAR 1EF3
ENCODING 7923
SWIDTH 640 0
DWIDTH 8 0
BBX 8 11 0 -2
BITMAP
20
30
18
FF
66
24
3C
18
18
30
60
ENDCHAR
STARTCHAR 2011
ENCODING 8209
SWIDTH 640 0
DWIDTH 8 0
BBX 6 1 1 3
BITMAP
FC
ENDCHAR
STARTCHAR 2013
ENCODING 8211
SWIDTH 640 0
DWIDTH 8 0
BBX 6 1 1 3
BITMAP
FC
ENDCHAR
STARTCHAR 2014
ENCODING 8212
SWIDTH 640 0
DWIDTH 8 0
BBX 8 1 0 3
BITMAP
FF
ENDCHAR
STARTCHAR 2018
ENCODING 8216
SWIDTH 640 0
DWIDTH 8 0
BBX 3 4 2 4
BITMAP
20
60
60
E0
ENDCHAR
STARTCHAR 2019
ENCODING 8217
SWIDTH 640 0
DWIDTH 8 0
BBX 2 4 3 4
BITMAP
C0
C0
80
80
ENDCHAR
STARTCHAR 201A
ENCODING 8218
SWIDTH 640 0
DWIDTH 8 0
BBX 2 4 3 -2
BITMAP
C0
C0
80
80
ENDCHAR
STARTCHAR 201C
ENCODING 8220
SWIDTH 640 0
DWIDTH 8 0
BBX 6 4 1 4
BITMAP
44
4C
CC
D8
ENDCHAR
STARTCHAR 201D
ENCODING 8221
SWIDTH 640 0
DWIDTH 8 0
BBX 6 4 1 4
BITMAP
EC
CC
C8
98
ENDCHAR
STARTCHAR 201E
ENCODING 8222
SWIDTH 640 0
DWIDTH 8 0
BBX 6 4 1 -2
BITMAP
EC
CC
C8
98
ENDCHAR
STARTCHAR 2020
ENCODING 8224
SWIDTH 640 0
DWIDTH 8 0
BBX 4 6 2 2
BITMAP
60
60
F0
60
60
60
ENDCHAR
STARTCHAR 2021
ENCODING 8225
SWIDTH 640 0
DWIDTH 8 0
BBX 4 7 2 1
BITMAP
60
60
F0
60
F0
60
60
ENDCHAR
STARTCHAR 2022
ENCODING 8226
SWIDTH 640 0
DWIDTH 8 0
BBX 4 3 2 2
BITMAP
F0
F0
F0
ENDCHAR
STARTCHAR 2026
ENCODING 8230
SWIDTH 640 0
DWIDTH 8 0
BBX 6 1 1 0
BITMAP
B4
ENDCHAR
STARTCHAR 2030
ENCODING 8240
SWIDTH 640 0
DWIDTH 8 0
BBX 10 8 0 0
BITMAP
6000
F200
7400
0800
1000
6F80
4BC0
0F80
ENDCHAR
STARTCHAR 2032
ENCODING 8242
SWIDTH 640 0
DWIDTH 8 0
BBX 4 3 2 5
BITMAP
30
60
C0
ENDCHAR
STARTCHAR 2033
ENCODING 8243
SWIDTH 640 0
DWIDTH 8 0
BBX 6 3 1 5
BITMAP
6C
68
D8
ENDCHAR
STARTCHAR 2039
ENCODING 8249
SWIDTH 640 0
DWIDTH 8 0
BBX 3 5 2 1
BITMAP
20
60
C0
60
20
ENDCHAR
STARTCHAR 203A
ENCODING 8250
SWIDTH 640 0
DWIDTH 8 0
BBX 4 5 2 1
BITMAP
C0
60
30
60
C0
ENDCHAR
STARTCHAR 2044
ENCODING 8260
SWIDTH 640 0
DWIDTH 8 0
BBX 6 4 1 1
BITMAP
04
18
60
80
ENDCHAR
STARTCHAR 2074
ENCODING 8308
SWIDTH 640 0
DWIDTH 8 0
BBX 5 5 1 3
BITMAP
10
30
50
F8
10
ENDCHAR
STARTCHAR 20A3
ENCODING 8355
SWIDTH 640 0
DWIDTH 8 0
BBX 7 8 0 0
BITMAP
FE
22
20
3C
20
FC
20
F8
ENDCHAR
STARTCHAR 20A9
ENCODING 8361
SWIDTH 640 0
DWIDTH 8 0
BBX 8 8 0 0
BITMAP
E7
42
5A
FF
5A
7E
66
66
ENDCHAR
STARTCHAR 20AC
ENCODING 8364
SWIDTH 640 0
DWIDTH 8 0
BBX 7 8 0 0
BITMAP
3A
36
FA
60
60
F8
36
3E
ENDCHAR
STARTCHAR 2122
ENCODING 8482
SWIDTH 640 0
DWIDTH 8 0
BBX 8 3 0 5
BITMAP
F9
6F
6F
ENDCHAR
STARTCHAR 2202
ENCODING 8706
SWIDTH 640 0
DWIDTH 8 0
BBX 6 8 1 0
BITMAP
78
08
0C
7C
DC
88
D8
70
ENDCHAR
STARTCHAR 220F
ENCODING 8719
SWIDTH 640 0
DWIDTH 8 0
BBX 6 7 1 0
BITMAP
FC
CC
CC
CC
CC
CC
CC
ENDCHAR
STARTCHAR 2211
ENCODING 8721
SWIDTH 640 0
DWIDTH 8 0
BBX 6 7 1 0
BITMAP
FC
60
60
30
20
60
FC
ENDCHAR
STARTCHAR 2212
ENCODING 8722
SWIDTH 640 0
DWIDTH 8 0
BBX 6 1 1 3
BITMAP
FC
ENDCHAR
STARTCHAR 2215
ENCODING 8725
SWIDTH 640 0
DWIDTH 8 0
BBX 6 13 1 -2
BITMAP
08
0C
08
18
18
30
30
20
60
60
40
C0
C0
ENDCHAR
STARTCHAR 221A
ENCODING 8730
SWIDTH 640 0
DWIDTH 8 0
BBX 6 7 1 0
BITMAP
0C
0C
08
D8
78
70
30
ENDCHAR
STARTCHAR 221E
ENCODING 8734
SWIDTH 640 0
DWIDTH 8 0
BBX 8 4 0 2
BITMAP
6E
9B
9B
6E
ENDCHAR
STARTCHAR 222B
ENCODING 8747
SWIDTH 640 0
DWIDTH 8 0
BBX 8 12 0 -2
BITMAP
0F
19
18
18
18
18
18
18
18
18
18
F0
ENDCHAR
STARTCHAR 2248
ENCODING 8776
SWIDTH 640 0
DWIDTH 8 0
BBX 6 4 1 2
BITMAP
E4
BC
E4
BC
ENDCHAR
STARTCHAR 2260
ENCODING 8800
SWIDTH 640 0
DWIDTH 8 0
BBX 6 6 1 1
BITMAP
08
FC
30
20
FC
40
ENDCHAR
STARTCHAR 2264
ENCODING 8804
SWIDTH 640 0
DWIDTH 8 0
BBX 6 7 1 0
BITMAP
0C
78
C0
78
1C
00
FC
ENDCHAR
STARTCHAR 2265
ENCODING 8805
SWIDTH 640 0
DWIDTH 8 0
BBX 6 7 1 0
BITMAP
C0
78
1C
78
C0
00
FC
ENDCHAR
STARTCHAR 25CA
ENCODING 9674
SWIDTH 640 0
DWIDTH 8 0
BBX 6 8 1 0
BITMAP
30
70
78
C8
CC
78
70
30
ENDCHAR
STARTCHAR FB01
ENCODING 64257
SWIDTH 640 0
DWIDTH 8 0
BBX 8 8 0 0
BITMAP
3C
64
FE
66
66
66
66
6F
ENDCHAR
STARTCHAR FB02
ENCODING 64258
SWIDTH 640 0
DWIDTH 8 0
BBX 8 8 0 0
BITMAP
3C
66
F6
66
66
66
66
6F
ENDCHAR
ENDFONT
